<svg width="193" height="197" viewBox="0 0 193 197" fill="none" xmlns="http://www.w3.org/2000/svg">
<path fill-rule="evenodd" clip-rule="evenodd" d="M0 0C0.000172484 -0.00058158 12.6795 31.2524 39.4309 51.3247C66.2297 71.3699 109.682 63.1801 109.682 63.1801L102.106 38.92C101.825 38.0176 102.334 37.0595 103.244 36.78C103.722 36.6332 104.241 36.6995 104.666 36.9618L157.146 69.3596C157.955 69.8589 158.202 70.9137 157.699 71.7158C157.627 71.8295 157.543 71.9345 157.447 72.0286L110.815 117.714C110.137 118.378 109.045 118.372 108.376 117.7C107.981 117.303 107.805 116.74 107.906 116.192L111.949 94.1473C111.948 94.1481 62.3952 98.8527 32.0376 72.5057C1.63942 46.1798 0.000172484 -0.00140263 0 0Z" transform="translate(91.4655) rotate(50)" fill="#9B9A9A"/>
</svg>
